<svg width="72" height="12" viewBox="0 0 72 12" fill="none" xmlns="http://www.w3.org/2000/svg">
<path d="M8.95931 7.16C8.82981 7.2855 8.77031 7.467 8.79981 7.645L9.24431 10.105C9.28181 10.3135 9.19381 10.5245 9.01931 10.645C8.84831 10.77 8.62081 10.785 8.43431 10.685L6.21981 9.53C6.14281 9.489 6.05731 9.467 5.96981 9.4645H5.83431C5.78731 9.4715 5.74132 9.4865 5.69932 9.5095L3.48432 10.67C3.37482 10.725 3.25082 10.7445 3.12932 10.725C2.83332 10.669 2.63582 10.387 2.68432 10.0895L3.12932 7.6295C3.15882 7.45 3.09932 7.2675 2.96982 7.14L1.16432 5.39C1.01332 5.2435 0.960816 5.0235 1.02982 4.825C1.09682 4.627 1.26782 4.4825 1.47432 4.45L3.95932 4.0895C4.14832 4.07 4.31432 3.955 4.39932 3.785L5.49431 1.54C5.52031 1.49 5.55382 1.444 5.59432 1.405L5.63931 1.37C5.66281 1.344 5.68982 1.3225 5.71981 1.305L5.77431 1.285L5.85931 1.25H6.06981C6.25781 1.2695 6.42331 1.382 6.50981 1.55L7.61931 3.785C7.69931 3.9485 7.85482 4.062 8.03431 4.0895L10.5193 4.45C10.7293 4.48 10.9048 4.625 10.9743 4.825C11.0398 5.0255 10.9833 5.2455 10.8293 5.39L8.95931 7.16Z" fill="#FFB45B"/>
<path d="M38.9593 7.16C38.8298 7.2855 38.7703 7.467 38.7998 7.645L39.2443 10.105C39.2818 10.3135 39.1938 10.5245 39.0193 10.645C38.8483 10.77 38.6208 10.785 38.4343 10.685L36.2198 9.53C36.1428 9.489 36.0573 9.467 35.9698 9.4645H35.8343C35.7873 9.4715 35.7413 9.4865 35.6993 9.5095L33.4843 10.67C33.3748 10.725 33.2508 10.7445 33.1293 10.725C32.8333 10.669 32.6358 10.387 32.6843 10.0895L33.1293 7.6295C33.1588 7.45 33.0993 7.2675 32.9698 7.14L31.1643 5.39C31.0133 5.2435 30.9608 5.0235 31.0298 4.825C31.0968 4.627 31.2678 4.4825 31.4743 4.45L33.9593 4.0895C34.1483 4.07 34.3143 3.955 34.3993 3.785L35.4943 1.54C35.5203 1.49 35.5538 1.444 35.5943 1.405L35.6393 1.37C35.6628 1.344 35.6898 1.3225 35.7198 1.305L35.7743 1.285L35.8593 1.25H36.0698C36.2578 1.2695 36.4233 1.382 36.5098 1.55L37.6193 3.785C37.6993 3.9485 37.8548 4.062 38.0343 4.0895L40.5193 4.45C40.7293 4.48 40.9048 4.625 40.9743 4.825C41.0398 5.0255 40.9833 5.2455 40.8293 5.39L38.9593 7.16Z" fill="#FFB45B"/>
<path d="M23.9593 7.16C23.8298 7.2855 23.7703 7.467 23.7998 7.645L24.2443 10.105C24.2818 10.3135 24.1938 10.5245 24.0193 10.645C23.8483 10.77 23.6208 10.785 23.4343 10.685L21.2198 9.53C21.1428 9.489 21.0573 9.467 20.9698 9.4645H20.8343C20.7873 9.4715 20.7413 9.4865 20.6993 9.5095L18.4843 10.67C18.3748 10.725 18.2508 10.7445 18.1293 10.725C17.8333 10.669 17.6358 10.387 17.6843 10.0895L18.1293 7.6295C18.1588 7.45 18.0993 7.2675 17.9698 7.14L16.1643 5.39C16.0133 5.2435 15.9608 5.0235 16.0298 4.825C16.0968 4.627 16.2678 4.4825 16.4743 4.45L18.9593 4.0895C19.1483 4.07 19.3143 3.955 19.3993 3.785L20.4943 1.54C20.5203 1.49 20.5538 1.444 20.5943 1.405L20.6393 1.37C20.6628 1.344 20.6898 1.3225 20.7198 1.305L20.7743 1.285L20.8593 1.25H21.0698C21.2578 1.2695 21.4233 1.382 21.5098 1.55L22.6193 3.785C22.6993 3.9485 22.8548 4.062 23.0343 4.0895L25.5193 4.45C25.7293 4.48 25.9048 4.625 25.9743 4.825C26.0398 5.0255 25.9833 5.2455 25.8293 5.39L23.9593 7.16Z" fill="#FFB45B"/>
<path d="M53.9593 7.16C53.8298 7.2855 53.7703 7.467 53.7998 7.645L54.2443 10.105C54.2818 10.3135 54.1938 10.5245 54.0193 10.645C53.8483 10.77 53.6208 10.785 53.4343 10.685L51.2198 9.53C51.1428 9.489 51.0573 9.467 50.9698 9.4645H50.8343C50.7873 9.4715 50.7413 9.4865 50.6993 9.5095L48.4843 10.67C48.3748 10.725 48.2508 10.7445 48.1293 10.725C47.8333 10.669 47.6358 10.387 47.6843 10.0895L48.1293 7.6295C48.1588 7.45 48.0993 7.2675 47.9698 7.14L46.1643 5.39C46.0133 5.2435 45.9608 5.0235 46.0298 4.825C46.0968 4.627 46.2678 4.4825 46.4743 4.45L48.9593 4.0895C49.1483 4.07 49.3143 3.955 49.3993 3.785L50.4943 1.54C50.5203 1.49 50.5538 1.444 50.5943 1.405L50.6393 1.37C50.6628 1.344 50.6898 1.3225 50.7198 1.305L50.7743 1.285L50.8593 1.25H51.0698C51.2578 1.2695 51.4233 1.382 51.5098 1.55L52.6193 3.785C52.6993 3.9485 52.8548 4.062 53.0343 4.0895L55.5193 4.45C55.7293 4.48 55.9048 4.625 55.9743 4.825C56.0398 5.0255 55.9833 5.2455 55.8293 5.39L53.9593 7.16Z" fill="#FFB45B"/>
<path opacity="0.4" d="M66.4882 1.55681L67.6014 3.79394C67.6834 3.95603 67.8399 4.06858 68.0205 4.0936L70.521 4.45778C70.667 4.47829 70.7996 4.55533 70.8891 4.67289C70.9776 4.78895 71.0156 4.93603 70.9941 5.0806C70.9766 5.20066 70.9201 5.31172 70.8336 5.39676L69.0217 7.15315C68.8892 7.27571 68.8292 7.45731 68.8612 7.6349L69.3073 10.1042C69.3548 10.4023 69.1572 10.6834 68.8612 10.74C68.7391 10.7595 68.6141 10.739 68.5041 10.6829L66.2736 9.52086C66.1081 9.43731 65.9125 9.43731 65.747 9.52086L63.5165 10.6829C63.2425 10.8285 62.9029 10.7295 62.7503 10.4593C62.6938 10.3518 62.6738 10.2292 62.6923 10.1097L63.1384 7.6399C63.1704 7.46281 63.1099 7.28022 62.9779 7.15765L61.166 5.40226C60.9505 5.19416 60.944 4.85148 61.1515 4.63587C61.156 4.63137 61.161 4.62637 61.166 4.62137C61.252 4.53382 61.3651 4.47829 61.4871 4.46379L63.9876 4.0991C64.1677 4.07359 64.3242 3.96203 64.4067 3.79895L65.4799 1.55681C65.5755 1.36471 65.7735 1.24515 65.9885 1.25015H66.0556C66.2421 1.27266 66.4046 1.38822 66.4882 1.55681Z" fill="#FFB45B"/>
<path d="M65.996 9.45856C65.8992 9.46156 65.8048 9.48758 65.7199 9.53412L63.5004 10.6936C63.2288 10.8232 62.9038 10.7226 62.7515 10.4629C62.6951 10.3568 62.6746 10.2352 62.6936 10.1161L63.1369 7.65158C63.1669 7.47243 63.107 7.29028 62.9767 7.16418L61.164 5.40924C60.9488 5.19857 60.9448 4.85278 61.1555 4.63711C61.1585 4.6341 61.161 4.6316 61.164 4.6291C61.2498 4.54403 61.3607 4.48798 61.48 4.47047L63.9826 4.10217C64.1638 4.07915 64.3211 3.96605 64.401 3.80192L65.4888 1.53156C65.5921 1.34841 65.7903 1.23932 66 1.25083C65.996 1.39945 65.996 9.35748 65.996 9.45856Z" fill="#FFB45B"/>
</svg>
