<svg width="24" height="24" viewBox="0 0 24 24" fill="none" xmlns="http://www.w3.org/2000/svg">
<circle cx="12" cy="12" r="12" fill="white"/>
<path d="M13.535 7C14.89 7 15.985 7.535 16 8.895V16.485C16 16.57 15.98 16.655 15.94 16.73C15.875 16.85 15.765 16.94 15.63 16.98C15.5 17.02 15.355 17 15.235 16.93L11.995 15.31L8.75 16.93C8.6755 16.9695 8.59 16.995 8.505 16.995C8.225 16.995 8 16.765 8 16.485V8.895C8 7.535 9.1 7 10.45 7H13.535ZM13.875 10.02H10.11C9.895 10.02 9.72 10.195 9.72 10.415C9.72 10.6345 9.895 10.81 10.11 10.81H13.875C14.09 10.81 14.265 10.6345 14.265 10.415C14.265 10.195 14.09 10.02 13.875 10.02Z" fill="#07AEAF"/>
</svg>
