<svg width="16" height="16" viewBox="0 0 16 16" fill="none" xmlns="http://www.w3.org/2000/svg">
<circle cx="8" cy="8" r="8" fill="white"/>
<path d="M9.02333 4.66675C9.92666 4.66675 10.6567 5.02341 10.6667 5.93008V10.9901C10.6667 11.0467 10.6533 11.1034 10.6267 11.1534C10.5833 11.2334 10.51 11.2934 10.42 11.3201C10.3333 11.3467 10.2367 11.3334 10.1567 11.2867L7.99666 10.2067L5.83333 11.2867C5.78366 11.3131 5.72666 11.3301 5.66999 11.3301C5.48333 11.3301 5.33333 11.1767 5.33333 10.9901V5.93008C5.33333 5.02341 6.06666 4.66675 6.96666 4.66675H9.02333ZM9.24999 6.68008H6.73999C6.59666 6.68008 6.47999 6.79675 6.47999 6.94341C6.47999 7.08975 6.59666 7.20675 6.73999 7.20675H9.24999C9.39333 7.20675 9.50999 7.08975 9.50999 6.94341C9.50999 6.79675 9.39333 6.68008 9.24999 6.68008Z" fill="#07AEAF"/>
</svg>
