<svg width="52" height="8" viewBox="0 0 52 8" fill="none" xmlns="http://www.w3.org/2000/svg">
<g clip-path="url(#clip0_523_1449)">
<path d="M5.97286 4.77325C5.88652 4.85692 5.84686 4.97792 5.86652 5.09659L6.16286 6.73659C6.18786 6.87559 6.12919 7.01625 6.01286 7.09659C5.89886 7.17992 5.74719 7.18992 5.62286 7.12325L4.14652 6.35325C4.09519 6.32592 4.03819 6.31125 3.97986 6.30959H3.88952C3.85819 6.31425 3.82752 6.32425 3.79952 6.33959L2.32286 7.11325C2.24986 7.14992 2.16719 7.16292 2.08619 7.14992C1.88886 7.11259 1.75719 6.92459 1.78952 6.72625L2.08619 5.08625C2.10586 4.96659 2.06619 4.84492 1.97986 4.75992L0.77619 3.59325C0.675524 3.49559 0.640524 3.34892 0.686524 3.21659C0.73119 3.08459 0.84519 2.98825 0.982857 2.96659L2.63952 2.72625C2.76552 2.71325 2.87619 2.63659 2.93286 2.52325L3.66286 1.02659C3.68019 0.993252 3.70252 0.962585 3.72952 0.936585L3.75952 0.913252C3.77519 0.895919 3.79319 0.881585 3.81319 0.869919L3.84952 0.856585L3.90619 0.833252H4.04652C4.17186 0.846252 4.28219 0.921252 4.33986 1.03325L5.07952 2.52325C5.13286 2.63225 5.23652 2.70792 5.35619 2.72625L7.01286 2.96659C7.15286 2.98659 7.26986 3.08325 7.31619 3.21659C7.35986 3.35025 7.32219 3.49692 7.21952 3.59325L5.97286 4.77325Z" fill="#FFB45B"/>
</g>
<g clip-path="url(#clip1_523_1449)">
<path d="M27.9729 4.77325C27.8865 4.85692 27.8469 4.97792 27.8665 5.09659L28.1629 6.73659C28.1879 6.87559 28.1292 7.01625 28.0129 7.09659C27.8989 7.17992 27.7472 7.18992 27.6229 7.12325L26.1465 6.35325C26.0952 6.32592 26.0382 6.31125 25.9799 6.30959H25.8895C25.8582 6.31425 25.8275 6.32425 25.7995 6.33959L24.3229 7.11325C24.2499 7.14992 24.1672 7.16292 24.0862 7.14992C23.8889 7.11259 23.7572 6.92459 23.7895 6.72625L24.0862 5.08625C24.1059 4.96659 24.0662 4.84492 23.9799 4.75992L22.7762 3.59325C22.6755 3.49559 22.6405 3.34892 22.6865 3.21659C22.7312 3.08459 22.8452 2.98825 22.9829 2.96659L24.6395 2.72625C24.7655 2.71325 24.8762 2.63659 24.9329 2.52325L25.6629 1.02659C25.6802 0.993252 25.7025 0.962585 25.7295 0.936585L25.7595 0.913252C25.7752 0.895919 25.7932 0.881585 25.8132 0.869919L25.8495 0.856585L25.9062 0.833252H26.0465C26.1719 0.846252 26.2822 0.921252 26.3399 1.03325L27.0795 2.52325C27.1329 2.63225 27.2365 2.70792 27.3562 2.72625L29.0129 2.96659C29.1529 2.98659 29.2699 3.08325 29.3162 3.21659C29.3599 3.35025 29.3222 3.49692 29.2195 3.59325L27.9729 4.77325Z" fill="#FFB45B"/>
</g>
<g clip-path="url(#clip2_523_1449)">
<path d="M16.9729 4.77325C16.8865 4.85692 16.8469 4.97792 16.8665 5.09659L17.1629 6.73659C17.1879 6.87559 17.1292 7.01625 17.0129 7.09659C16.8989 7.17992 16.7472 7.18992 16.6229 7.12325L15.1465 6.35325C15.0952 6.32592 15.0382 6.31125 14.9799 6.30959H14.8895C14.8582 6.31425 14.8275 6.32425 14.7995 6.33959L13.3229 7.11325C13.2499 7.14992 13.1672 7.16292 13.0862 7.14992C12.8889 7.11259 12.7572 6.92459 12.7895 6.72625L13.0862 5.08625C13.1059 4.96659 13.0662 4.84492 12.9799 4.75992L11.7762 3.59325C11.6755 3.49559 11.6405 3.34892 11.6865 3.21659C11.7312 3.08459 11.8452 2.98825 11.9829 2.96659L13.6395 2.72625C13.7655 2.71325 13.8762 2.63659 13.9329 2.52325L14.6629 1.02659C14.6802 0.993252 14.7025 0.962585 14.7295 0.936585L14.7595 0.913252C14.7752 0.895919 14.7932 0.881585 14.8132 0.869919L14.8495 0.856585L14.9062 0.833252H15.0465C15.1719 0.846252 15.2822 0.921252 15.3399 1.03325L16.0795 2.52325C16.1329 2.63225 16.2365 2.70792 16.3562 2.72625L18.0129 2.96659C18.1529 2.98659 18.2699 3.08325 18.3162 3.21659C18.3599 3.35025 18.3222 3.49692 18.2195 3.59325L16.9729 4.77325Z" fill="#FFB45B"/>
</g>
<g clip-path="url(#clip3_523_1449)">
<path d="M38.9729 4.77325C38.8865 4.85692 38.8469 4.97792 38.8665 5.09659L39.1629 6.73659C39.1879 6.87559 39.1292 7.01625 39.0129 7.09659C38.8989 7.17992 38.7472 7.18992 38.6229 7.12325L37.1465 6.35325C37.0952 6.32592 37.0382 6.31125 36.9799 6.30959H36.8895C36.8582 6.31425 36.8275 6.32425 36.7995 6.33959L35.3229 7.11325C35.2499 7.14992 35.1672 7.16292 35.0862 7.14992C34.8889 7.11259 34.7572 6.92459 34.7895 6.72625L35.0862 5.08625C35.1059 4.96659 35.0662 4.84492 34.9799 4.75992L33.7762 3.59325C33.6755 3.49559 33.6405 3.34892 33.6865 3.21659C33.7312 3.08459 33.8452 2.98825 33.9829 2.96659L35.6395 2.72625C35.7655 2.71325 35.8762 2.63659 35.9329 2.52325L36.6629 1.02659C36.6802 0.993252 36.7025 0.962585 36.7295 0.936585L36.7595 0.913252C36.7752 0.895919 36.7932 0.881585 36.8132 0.869919L36.8495 0.856585L36.9062 0.833252H37.0465C37.1719 0.846252 37.2822 0.921252 37.3399 1.03325L38.0795 2.52325C38.1329 2.63225 38.2365 2.70792 38.3562 2.72625L40.0129 2.96659C40.1529 2.98659 40.2699 3.08325 40.3162 3.21659C40.3599 3.35025 40.3222 3.49692 40.2195 3.59325L38.9729 4.77325Z" fill="#FFB45B"/>
</g>
<g clip-path="url(#clip4_523_1449)">
<path opacity="0.4" d="M48.3254 1.03779L49.0676 2.52921C49.1223 2.63727 49.2266 2.71231 49.347 2.72898L51.014 2.97177C51.1114 2.98545 51.1997 3.03681 51.2594 3.11518C51.3184 3.19255 51.3437 3.2906 51.3294 3.38698C51.3177 3.46703 51.2801 3.54106 51.2224 3.59776L50.0145 4.76869C49.9261 4.85039 49.8861 4.97146 49.9074 5.08985L50.2048 6.73602C50.2365 6.93479 50.1048 7.12222 49.9074 7.1599C49.8261 7.17291 49.7427 7.15924 49.6694 7.12188L48.1824 6.34716C48.072 6.29146 47.9417 6.29146 47.8313 6.34716L46.3443 7.12188C46.1616 7.21893 45.9352 7.1529 45.8336 6.97281C45.7959 6.9011 45.7825 6.8194 45.7949 6.73969L46.0923 5.09318C46.1136 4.97513 46.0733 4.8534 45.9853 4.77169L44.7773 3.60143C44.6336 3.46269 44.6293 3.23424 44.7677 3.0905C44.7707 3.0875 44.774 3.08416 44.7773 3.08083C44.8347 3.02247 44.91 2.98545 44.9914 2.97578L46.6584 2.73265C46.7784 2.71564 46.8828 2.64127 46.9378 2.53255L47.6533 1.03779C47.717 0.909725 47.849 0.830018 47.9924 0.833353H48.037C48.1614 0.84836 48.2697 0.925399 48.3254 1.03779Z" fill="#FFB45B"/>
<path d="M47.9973 6.30562C47.9328 6.30763 47.8699 6.32497 47.8133 6.356L46.3336 7.12897C46.1525 7.21537 45.9358 7.14831 45.8343 6.97517C45.7967 6.90445 45.7831 6.82338 45.7957 6.74398L46.0913 5.10097C46.1112 4.98154 46.0713 4.86011 45.9844 4.77604L44.776 3.60608C44.6325 3.46563 44.6299 3.23511 44.7703 3.09132C44.7723 3.08932 44.774 3.08765 44.776 3.08598C44.8332 3.02927 44.9071 2.99191 44.9866 2.98023L46.6551 2.7347C46.7759 2.71935 46.8807 2.64396 46.934 2.53453L47.6592 1.02096C47.7281 0.898858 47.8602 0.826132 48 0.833805C47.9973 0.932886 47.9973 6.23823 47.9973 6.30562Z" fill="#FFB45B"/>
</g>
<defs>
<clipPath id="clip0_523_1449">
<rect width="8" height="8" fill="white"/>
</clipPath>
<clipPath id="clip1_523_1449">
<rect width="8" height="8" fill="white" transform="translate(22)"/>
</clipPath>
<clipPath id="clip2_523_1449">
<rect width="8" height="8" fill="white" transform="translate(11)"/>
</clipPath>
<clipPath id="clip3_523_1449">
<rect width="8" height="8" fill="white" transform="translate(33)"/>
</clipPath>
<clipPath id="clip4_523_1449">
<rect width="8" height="8" fill="white" transform="translate(44)"/>
</clipPath>
</defs>
</svg>
