<svg width="24" height="24" viewBox="0 0 24 24" fill="none" xmlns="http://www.w3.org/2000/svg">
<g clip-path="url(#clip0_523_2346)">
<path fill-rule="evenodd" clip-rule="evenodd" d="M21.2729 14.7351C21.6859 14.7661 21.9949 15.1271 21.9639 15.5401L21.7739 18.0491C21.6169 20.1191 19.8699 21.7401 17.7949 21.7401H6.1949C4.1199 21.7401 2.3729 20.1191 2.2159 18.0491L2.0259 15.5401C1.9949 15.1271 2.3049 14.7661 2.7179 14.7351C3.1329 14.7201 3.4909 15.0131 3.5229 15.4271L3.7119 17.9351C3.8099 19.2271 4.8999 20.2401 6.1949 20.2401H17.7949C19.0899 20.2401 20.1809 19.2271 20.2779 17.9351L20.4679 15.4271C20.4999 15.0131 20.8669 14.7191 21.2729 14.7351ZM13.2851 2C14.788 2 16.0332 3.12626 16.2207 4.57903L18.1902 4.5799C20.2862 4.5799 21.9902 6.2889 21.9902 8.3909V11.8299C21.9902 12.0969 21.8482 12.3429 21.6192 12.4769C19.1509 13.9224 16.0241 14.7655 12.7447 14.878L12.7451 16.6766C12.7451 17.0906 12.4091 17.4266 11.9951 17.4266C11.5811 17.4266 11.2451 17.0906 11.2451 16.6766L11.2444 14.8782C7.96838 14.7668 4.84135 13.9235 2.3712 12.4769C2.1412 12.3429 2.0002 12.0969 2.0002 11.8299V8.3809C2.0002 6.2849 3.7092 4.5799 5.8102 4.5799L7.76951 4.57903C7.95704 3.12626 9.20216 2 10.7051 2H13.2851ZM18.1902 6.0799H5.8102C4.5362 6.0799 3.5002 7.1119 3.5002 8.3809V11.3929C5.87391 12.6827 8.86643 13.3895 11.9812 13.3909L11.9951 13.3896L12.0062 13.39L12.4824 13.385C15.4282 13.3149 18.2383 12.616 20.4902 11.3929V8.3909C20.4902 7.1159 19.4592 6.0799 18.1902 6.0799ZM13.2851 3.5H10.7051C10.0318 3.5 9.46336 3.95827 9.29545 4.57928H14.6947C14.5268 3.95827 13.9584 3.5 13.2851 3.5Z" fill="#9295A3"/>
</g>
<defs>
<clipPath id="clip0_523_2346">
<rect width="24" height="24" fill="white"/>
</clipPath>
</defs>
</svg>
