<svg width="10" height="10" viewBox="0 0 10 10" fill="none" xmlns="http://www.w3.org/2000/svg">
<g clip-path="url(#clip0_571_809)">
<path d="M5.00016 0.833008C7.30433 0.833008 9.16683 2.70009 9.16683 4.99967C9.16683 7.30009 7.30433 9.16634 5.00016 9.16634C2.70016 9.16634 0.833496 7.30009 0.833496 4.99967C0.833496 2.70009 2.70016 0.833008 5.00016 0.833008ZM5.00016 6.22092C4.80016 6.22092 4.63766 6.38342 4.63766 6.58342C4.63766 6.78342 4.80016 6.95009 5.00433 6.95009C5.20433 6.95009 5.36683 6.78342 5.36683 6.58342C5.36683 6.38342 5.20433 6.22092 5.00016 6.22092ZM5.00016 3.05384C4.80016 3.05384 4.6335 3.22092 4.6335 3.42051V5.26217C4.6335 5.46259 4.80016 5.62467 5.00016 5.62467C5.20016 5.62467 5.36266 5.46259 5.36266 5.26217V3.42051C5.36266 3.22092 5.20016 3.05384 5.00016 3.05384Z" fill="#07AEAF"/>
</g>
<defs>
<clipPath id="clip0_571_809">
<rect width="10" height="10" fill="white"/>
</clipPath>
</defs>
</svg>
