<svg width="6" height="6" viewBox="0 0 6 6" fill="none" xmlns="http://www.w3.org/2000/svg">
<g clip-path="url(#clip0_383_6529)">
<path d="M2.99997 0.5C4.37997 0.5 5.49997 1.62 5.49997 3C5.49997 4.3825 4.37997 5.5 2.99997 5.5C1.61747 5.5 0.499969 4.3825 0.499969 3C0.499969 1.62 1.61747 0.5 2.99997 0.5ZM3.96247 2.1775C3.98997 2.09 3.90997 2.0075 3.82247 2.035L2.54247 2.435C2.48997 2.4525 2.44747 2.4925 2.43247 2.545L2.03247 3.8275C2.00497 3.9125 2.08747 3.995 2.17247 3.9675L3.44747 3.5675C3.49997 3.5525 3.54247 3.51 3.55747 3.4575L3.96247 2.1775Z" fill="#3266CC"/>
</g>
<defs>
<clipPath id="clip0_383_6529">
<rect width="6" height="6" fill="white"/>
</clipPath>
</defs>
</svg>
