<svg width="53" height="53" viewBox="0 0 53 53" fill="none" xmlns="http://www.w3.org/2000/svg">
<rect width="53" height="53" rx="20" fill="#F2F2F2"/>
<path d="M15.9226 37.4523H22.2633C21.4744 36.8673 20.8415 35.9699 20.4631 34.8896C19.4436 34.6689 18.6689 33.6368 18.6689 32.3975C18.6689 31.1022 19.5157 30.032 20.6047 29.8808C21.3403 28.1399 22.7644 26.9568 24.3983 26.9553L24.8947 20.768H25.5914V19.3545H20.0517C20.0349 17.2181 21.5249 15.4642 23.7258 15.4526C24.3089 15.4499 24.3092 14.5449 23.7258 14.5479C21.043 14.5617 19.1212 16.7245 19.1472 19.3541H14V20.7676H14.6953L15.9226 37.4523Z" fill="#F5A623"/>
<path d="M23.5742 37.2298C23.84 37.3182 24.1161 37.3704 24.4014 37.3704H33.0889C34.3947 37.3704 35.5336 36.3864 36.1373 34.9346H35.853H34.6724H23.7581H22.8178H21.6371H21.3531C21.8245 36.0694 22.6237 36.9137 23.5742 37.2298Z" fill="#F5A623"/>
<path d="M24.1654 29.8602H34.0633H35.5287H35.9774C35.3441 28.6031 34.2865 27.7764 33.0889 27.7764H24.4014C24.3779 27.7764 24.3553 27.7803 24.3324 27.7812C23.1636 27.8125 22.1335 28.6279 21.5133 29.8602H21.9614H23.4267H24.1654Z" fill="#F5A623"/>
<path d="M21.1804 30.6821H20.869C20.8287 30.6821 20.7906 30.6931 20.751 30.697C20.5851 30.7146 20.4282 30.7652 20.2843 30.8499C19.8166 31.1243 19.4911 31.7115 19.4911 32.3974C19.4911 33.0397 19.7785 33.5931 20.1985 33.887C20.3377 33.9845 20.4902 34.0535 20.6541 34.086C20.7247 34.1001 20.7958 34.1129 20.8694 34.1129H21.0843H21.1344H22.0644H23.8243H35.4261H36.3562H36.406H36.6216C36.695 34.1129 36.7664 34.1001 36.8362 34.086C37.0005 34.054 37.1527 33.9849 37.292 33.8874C37.7126 33.5935 38 33.0401 38 32.3974C38 31.7111 37.6742 31.1237 37.2058 30.8495C37.0621 30.7652 36.9043 30.7146 36.739 30.697C36.6998 30.6931 36.662 30.6821 36.6216 30.6821H36.3097H36.1741H35.174H24.0993H22.3159H21.316H21.1804ZM21.7485 31.734C22.2599 31.5237 22.8337 31.5149 23.4883 31.7853C23.6514 31.8529 23.8174 31.9611 23.9883 32.0687C24.4052 32.3303 24.8526 32.5879 25.3697 32.2436C25.6308 32.0698 25.9429 31.8319 26.2657 31.7786C26.9041 31.6729 27.4828 31.6819 28.0429 32.0534C29.0125 32.6963 29.8566 32.8704 30.8671 32.1914C31.2967 31.9034 31.8192 31.5334 32.3698 31.5615C33.0304 31.5959 33.6123 31.8447 34.1797 32.1755C34.8768 32.5816 35.2676 32.5751 35.8318 32.1532C35.9181 32.0886 36.0076 32.0165 36.1035 31.9326C36.2511 31.8037 36.4252 31.8205 36.5562 31.9033C36.583 31.9201 36.6098 31.9361 36.6323 31.9579C36.747 32.0714 36.7848 32.2424 36.6774 32.3896C36.6612 32.4117 36.6507 32.4353 36.6266 32.4563C36.6146 32.4666 36.6035 32.4752 36.5909 32.4858C36.3266 32.7143 36.0757 32.896 35.8257 33.0277C35.2696 33.3205 34.7158 33.3447 34.0078 32.9329C33.1322 32.4225 32.3617 32.0766 31.4387 32.6966C30.9527 33.0228 30.4245 33.3753 29.8202 33.4158C29.0694 33.4658 28.5225 33.258 27.9033 32.8471C26.7852 32.1064 26.1305 32.7856 25.1076 33.1882C24.605 33.3855 24.2665 33.1315 23.9229 32.873C23.7582 32.7491 23.5921 32.6238 23.4067 32.5469C22.6467 32.2322 22.1145 32.2946 21.6288 32.6633C21.4277 32.8158 21.2335 33.0157 21.0359 33.2708C21.0077 33.3069 20.9763 33.3286 20.9449 33.349C20.9269 33.3608 20.9092 33.371 20.8907 33.3784C20.7544 33.4298 20.6104 33.3608 20.5195 33.2379C20.428 33.1147 20.3975 32.9438 20.4925 32.7877C20.5007 32.774 20.5027 32.7604 20.5125 32.7468C20.6092 32.6224 20.709 32.5052 20.8113 32.3973C20.8418 32.3654 20.8739 32.3406 20.9045 32.31C21.1661 32.056 21.4459 31.8583 21.7485 31.734Z" fill="#F5A623"/>
</svg>
