<svg width="53" height="53" viewBox="0 0 53 53" fill="none" xmlns="http://www.w3.org/2000/svg">
<rect width="53" height="53" rx="20" fill="#F2F2F2"/>
<g clip-path="url(#clip0_383_6718)">
<path d="M28.4062 18.3125H27.7031V17.6094C27.7031 17.2207 27.3886 16.9062 27 16.9062C26.6114 16.9062 26.2969 17.2207 26.2969 17.6094V18.3125H25.5938C25.2051 18.3125 24.8906 18.627 24.8906 19.0156C24.8906 19.4043 25.2051 19.7188 25.5938 19.7188H26.2969V20.4219C26.2969 20.8105 26.6114 21.125 27 21.125C27.3886 21.125 27.7031 20.8105 27.7031 20.4219V19.7188H28.4062C28.7949 19.7188 29.1094 19.4043 29.1094 19.0156C29.1094 18.627 28.7949 18.3125 28.4062 18.3125Z" fill="#78D5E6"/>
<path d="M17.1094 25.3438H17.8125V23.9375H17.1094C15.9462 23.9375 15 24.8837 15 26.0469V37.2969C15 37.6855 15.3145 38 15.7031 38H17.8125V32.375H16.4062V30.9688H17.8125V29.5625H16.4062V28.1562H17.8125V26.75H16.4062V26.0469C16.4062 25.6596 16.7214 25.3438 17.1094 25.3438Z" fill="#78D5E6"/>
<path d="M36.8906 23.9375H36.1875V25.3438H36.8906C37.2786 25.3438 37.5938 25.6596 37.5938 26.0469V26.75H36.1875V28.1562H37.5938V29.5625H36.1875V30.9688H37.5938V32.375H36.1875V38H38.2969C38.6855 38 39 37.6855 39 37.2969V26.0469C39 24.8837 38.0538 23.9375 36.8906 23.9375Z" fill="#78D5E6"/>
<path d="M32.6719 16.9062H31.9219V14.7031C31.9219 14.3145 31.6074 14 31.2188 14H22.7812C22.3926 14 22.0781 14.3145 22.0781 14.7031V16.9062H21.3281C20.165 16.9062 19.2188 17.8525 19.2188 19.0156C19.2188 22.1463 19.2188 33.6973 19.2188 38C20.0018 38 24.1058 38 24.8906 38C24.8906 37.7014 24.8906 35.4771 24.8906 35.1875H29.1094C29.1094 35.4861 29.1094 37.7104 29.1094 38C29.8924 38 33.9964 38 34.7812 38C34.7812 35.8312 34.7812 21.2387 34.7812 19.0156C34.7812 17.8525 33.835 16.9062 32.6719 16.9062ZM26.2969 30.9688H23.4844V29.5625H26.2969V30.9688ZM26.2969 28.1562H23.4844V26.75H26.2969V28.1562ZM26.2969 25.3438H23.4844V23.9375H26.2969V25.3438ZM30.5156 30.9688H27.7031V29.5625H30.5156V30.9688ZM30.5156 28.1562H27.7031V26.75H30.5156V28.1562ZM30.5156 25.3438H27.7031V23.9375H30.5156V25.3438ZM30.5156 17.6094V22.5312H23.4844V17.6094V15.4062H30.5156V17.6094Z" fill="#78D5E6"/>
</g>
<defs>
<clipPath id="clip0_383_6718">
<rect width="24" height="24" fill="white" transform="translate(15 14)"/>
</clipPath>
</defs>
</svg>
