<svg width="53" height="53" viewBox="0 0 53 53" fill="none" xmlns="http://www.w3.org/2000/svg">
<rect width="53" height="53" rx="20" fill="#F2F2F2"/>
<g clip-path="url(#clip0_383_6743)">
<path d="M24.3502 21.0322V26.3534H29.6498V21.0322C28.5136 20.2339 27.5948 19.1469 27 17.8784C26.4052 19.1469 25.4864 20.2339 24.3502 21.0322Z" fill="#C698ED"/>
<path d="M33.4748 26.3533V22.443C32.6583 22.3666 31.8769 22.1665 31.1498 21.8613V26.3533H33.4748Z" fill="#C698ED"/>
<path d="M22.8501 21.8613C22.1231 22.1665 21.3417 22.3666 20.5251 22.443V26.3533H22.8501V21.8613Z" fill="#C698ED"/>
<path d="M26.25 14.5034V14.0215C23.2089 14.391 20.9797 16.7575 20.5899 19.5373C20.5143 20.0612 20.5252 20.4244 20.5252 20.9351C23.7432 20.5624 26.25 17.8202 26.25 14.5034Z" fill="#C698ED"/>
<path d="M33.4749 20.9351C33.4749 20.2335 33.492 19.6778 33.2564 18.7835C32.613 16.3214 30.4554 14.3341 27.75 14.0215V14.5034C27.75 17.8202 30.2569 20.5624 33.4749 20.9351Z" fill="#C698ED"/>
<path d="M37.125 27.8535C33.2039 27.8535 21.2564 27.8535 16.875 27.8535C15.8409 27.8535 15 28.6945 15 29.7285C15 30.7626 15.8409 31.6035 16.875 31.6035C17.2894 31.6035 17.625 31.2679 17.625 30.8535C17.625 30.4391 17.2894 30.1035 16.875 30.1035C16.6683 30.1035 16.5 29.9352 16.5 29.7285C16.5 29.5218 16.6683 29.3535 16.875 29.3535H18.75V32.1801C17.7523 32.7582 17.7493 34.197 18.75 34.777V36.4785H18C17.5856 36.4785 17.25 36.8141 17.25 37.2285C17.25 37.6429 17.5856 37.9785 18 37.9785H36C36.4144 37.9785 36.75 37.6429 36.75 37.2285C36.75 36.8141 36.4144 36.4785 36 36.4785H35.25V34.777C36.2478 34.1987 36.2506 32.7599 35.25 32.1801V29.3535H37.125C37.3317 29.3535 37.5 29.5218 37.5 29.7285C37.5 29.9352 37.3317 30.1035 37.125 30.1035C36.7106 30.1035 36.375 30.4391 36.375 30.8535C36.375 31.2679 36.7106 31.6035 37.125 31.6035C38.1591 31.6035 39 30.7626 39 29.7285C39 28.6945 38.1591 27.8535 37.125 27.8535ZM30 32.1801C29.0023 32.7582 28.9993 34.197 30 34.777V36.4785H27.75V34.777C28.7478 34.1987 28.7506 32.7599 27.75 32.1801C27.75 31.4313 27.75 30.0512 27.75 29.3535H30V32.1801ZM20.25 36.4785V34.777C21.2478 34.1987 21.2506 32.7599 20.25 32.1801C20.25 31.4313 20.25 30.0512 20.25 29.3535H22.5V32.1801C21.5023 32.7582 21.4993 34.197 22.5 34.777V36.4785H20.25ZM24 34.777C24.9978 34.1987 25.0006 32.7599 24 32.1801C24 31.2383 24 30.2969 24 29.3535H26.25V32.1801C25.2523 32.7582 25.2493 34.197 26.25 34.777V36.4785H24V34.777ZM31.5 36.4785V34.777C32.4978 34.1987 32.5006 32.7599 31.5 32.1801C31.5 31.4313 31.5 30.0512 31.5 29.3535H33.75V32.1801C32.7523 32.7582 32.7493 34.197 33.75 34.777V36.4785H31.5Z" fill="#C698ED"/>
</g>
<defs>
<clipPath id="clip0_383_6743">
<rect width="24" height="24" fill="white" transform="translate(15 14)"/>
</clipPath>
</defs>
</svg>
