<svg width="53" height="53" viewBox="0 0 53 53" fill="none" xmlns="http://www.w3.org/2000/svg">
<rect width="53" height="53" rx="20" fill="#F2F2F2"/>
<g clip-path="url(#clip0_383_6639)">
<path d="M22.875 16.25H22.125V17H22.875V16.25Z" fill="#C698ED"/>
<path d="M31.875 16.25H31.125V17H31.875V16.25Z" fill="#C698ED"/>
<path d="M38.415 35.0413L34.5675 33.1138C34.6288 33.1036 34.6864 33.0779 34.735 33.0392C34.7836 33.0005 34.8214 32.95 34.845 32.8925L36 30.125V31.25C36 31.3495 36.0395 31.4448 36.1098 31.5152C36.1802 31.5855 36.2755 31.625 36.375 31.625H37.875C37.9745 31.625 38.0698 31.5855 38.1402 31.5152C38.2105 31.4448 38.25 31.3495 38.25 31.25V20.75C38.25 20.6505 38.2105 20.5552 38.1402 20.4848C38.0698 20.4145 37.9745 20.375 37.875 20.375H36.375C36.2755 20.375 36.1802 20.4145 36.1098 20.4848C36.0395 20.5552 36 20.6505 36 20.75V21.875L34.845 19.1075C34.8174 19.0386 34.7698 18.9796 34.7083 18.9382C34.6467 18.8967 34.5742 18.8747 34.5 18.875H33.7125L33.3713 15.8338C33.3639 15.7487 33.3267 15.669 33.2663 15.6087L32.5163 14.8587C32.4447 14.7897 32.3494 14.7507 32.25 14.75H21.75C21.6506 14.7507 21.5553 14.7897 21.4838 14.8587L20.7337 15.6087C20.6733 15.669 20.6361 15.7487 20.6287 15.8338L20.2875 18.875H19.5C19.4258 18.8747 19.3533 18.8967 19.2917 18.9382C19.2302 18.9796 19.1826 19.0386 19.155 19.1075L18 21.875V20.75C18 20.6505 17.9605 20.5552 17.8902 20.4848C17.8198 20.4145 17.7245 20.375 17.625 20.375H16.125C16.0255 20.375 15.9302 20.4145 15.8598 20.4848C15.7895 20.5552 15.75 20.6505 15.75 20.75V31.25C15.75 31.3495 15.7895 31.4448 15.8598 31.5152C15.9302 31.5855 16.0255 31.625 16.125 31.625H17.625C17.7245 31.625 17.8198 31.5855 17.8902 31.5152C17.9605 31.4448 18 31.3495 18 31.25V30.125L19.155 32.8925C19.1826 32.9614 19.2302 33.0204 19.2917 33.0618C19.3533 33.1033 19.4258 33.1253 19.5 33.125H19.785L15.96 35.0413C15.8975 35.0719 15.8447 35.1193 15.8076 35.1783C15.7705 35.2372 15.7506 35.3054 15.75 35.375V36.875C15.75 36.9745 15.7895 37.0698 15.8598 37.1402C15.9302 37.2105 16.0255 37.25 16.125 37.25H38.25C38.3495 37.25 38.4448 37.2105 38.5152 37.1402C38.5855 37.0698 38.625 36.9745 38.625 36.875V35.375C38.6244 35.3054 38.6045 35.2372 38.5674 35.1783C38.5303 35.1193 38.4775 35.0719 38.415 35.0413ZM34.875 24.125H36.375C36.4368 24.1247 36.4975 24.1091 36.5518 24.0797C36.6061 24.0502 36.6523 24.0078 36.6863 23.9562C36.7263 23.895 36.7472 23.8232 36.7463 23.75H36.75V21.125H37.5V30.875H36.75V28.25H36.7463C36.7472 28.1768 36.7263 28.105 36.6863 28.0438C36.6523 27.9922 36.6061 27.9498 36.5518 27.9203C36.4975 27.8909 36.4368 27.8753 36.375 27.875H34.875V24.125ZM19.125 27.875H17.625C17.5632 27.8753 17.5025 27.8909 17.4482 27.9203C17.3939 27.9498 17.3477 27.9922 17.3138 28.0438C17.2737 28.105 17.2528 28.1768 17.2538 28.25H17.25V30.875H16.5V21.125H17.25V23.75H17.2538C17.2528 23.8232 17.2737 23.895 17.3138 23.9562C17.3477 24.0078 17.3939 24.0502 17.4482 24.0797C17.5025 24.1091 17.5632 24.1247 17.625 24.125H19.125V27.875ZM33.375 21.125V30.875H32.625V21.125H33.375ZM21.36 16.0475L21.9037 15.5H32.0963L32.64 16.0475L32.955 18.875H21.045L21.36 16.0475ZM25.5 26.75C25.4361 26.7498 25.3733 26.7333 25.3175 26.702C25.2618 26.6707 25.215 26.6256 25.1815 26.5712C25.1481 26.5167 25.1291 26.4546 25.1265 26.3907C25.1238 26.3268 25.1375 26.2633 25.1663 26.2062L26.6663 23.2062C26.7045 23.1315 26.7668 23.0718 26.8431 23.0366C26.9193 23.0015 27.0052 22.993 27.0869 23.0124C27.1686 23.0319 27.2413 23.0782 27.2936 23.1439C27.3458 23.2097 27.3745 23.291 27.375 23.375V24.875H28.5C28.5625 24.8751 28.6241 24.8909 28.679 24.9209C28.7339 24.9509 28.7804 24.9941 28.8143 25.0467C28.8482 25.0992 28.8684 25.1594 28.8732 25.2218C28.8779 25.2841 28.8669 25.3467 28.8412 25.4037L27.3412 28.7787C27.3117 28.8445 27.2638 28.9004 27.2032 28.9397C27.1427 28.9789 27.0721 28.9998 27 29C26.9736 28.9994 26.9473 28.9969 26.9213 28.9925C26.8372 28.9745 26.762 28.9281 26.708 28.8612C26.6541 28.7943 26.6248 28.7109 26.625 28.625V26.75H25.5ZM20.625 21.125H21.375V30.875H20.625V21.125ZM17.715 35L21.465 33.125H32.91L36.66 35H17.715Z" fill="#C698ED"/>
</g>
<defs>
<clipPath id="clip0_383_6639">
<rect width="24" height="24" fill="white" transform="translate(15 14)"/>
</clipPath>
</defs>
</svg>
