<svg width="53" height="53" viewBox="0 0 53 53" fill="none" xmlns="http://www.w3.org/2000/svg">
<rect width="53" height="53" rx="20" fill="#F2F2F2"/>
<path d="M20.6719 17.2109H17.1094C16.7207 17.2109 16.4062 17.5254 16.4062 17.9141C16.4062 18.3027 16.7207 18.6172 17.1094 18.6172H20.6719C21.0605 18.6172 21.375 18.3027 21.375 17.9141C21.375 17.5254 21.0605 17.2109 20.6719 17.2109Z" fill="#F5A623"/>
<path d="M20.6719 22.8359H17.1094C16.7207 22.8359 16.4062 23.1504 16.4062 23.5391C16.4062 23.9277 16.7207 24.2422 17.1094 24.2422H20.6719C21.0605 24.2422 21.375 23.9277 21.375 23.5391C21.375 23.1504 21.0605 22.8359 20.6719 22.8359Z" fill="#F5A623"/>
<path d="M19.2656 20.0234H15.7031C15.3145 20.0234 15 20.3379 15 20.7266C15 21.1152 15.3145 21.4297 15.7031 21.4297H19.2656C19.6543 21.4297 19.9688 21.1152 19.9688 20.7266C19.9688 20.3379 19.6543 20.0234 19.2656 20.0234Z" fill="#F5A623"/>
<path d="M37.5938 23.5392H33.3281V20.7267C33.3281 19.4917 31.8174 18.8415 30.9272 19.7328L25.3026 25.3574C24.7533 25.9067 24.7533 26.7966 25.3026 27.3459L28.5271 30.5704L24.5995 34.498C24.0502 35.0474 24.0502 35.9372 24.5995 36.4866C25.1488 37.0358 26.0387 37.0359 26.588 36.4866L31.5099 31.5647C32.0592 31.0154 32.0592 30.1255 31.5099 29.5762L28.2854 26.3517L30.5156 24.1215V24.9454C30.5156 25.722 31.1453 26.3517 31.9219 26.3517H37.5938C38.3703 26.3517 39 25.722 39 24.9454C39 24.1688 38.3703 23.5392 37.5938 23.5392Z" fill="#F5A623"/>
<path d="M28.1316 16.3924C27.5726 16.021 26.8311 16.0945 26.3572 16.5682L22.4901 20.4354C21.9407 20.9847 21.9407 21.8746 22.4901 22.4239C23.0394 22.9733 23.9293 22.9732 24.4786 22.4239L27.5308 19.3718L28.5589 20.1124L29.9326 18.7387C30.1624 18.5089 30.4335 18.3305 30.7298 18.1913L28.1316 16.3924Z" fill="#F5A623"/>
<path d="M24.3084 28.34C23.9521 27.9837 23.7142 27.5452 23.5888 27.071L16.162 34.4979C15.6127 35.0472 15.6127 35.9371 16.162 36.4864C16.7113 37.0357 17.6012 37.0357 18.1505 36.4864L25.3026 29.3343L24.3084 28.34Z" fill="#F5A623"/>
<path d="M34.0312 19.3203C35.1962 19.3203 36.1406 18.3759 36.1406 17.2109C36.1406 16.046 35.1962 15.1016 34.0312 15.1016C32.8663 15.1016 31.9219 16.046 31.9219 17.2109C31.9219 18.3759 32.8663 19.3203 34.0312 19.3203Z" fill="#F5A623"/>
</svg>
