<svg width="53" height="53" viewBox="0 0 53 53" fill="none" xmlns="http://www.w3.org/2000/svg">
<rect width="53" height="53" rx="20" fill="#F2F2F2"/>
<path d="M27 14C19.4086 14 15.4528 23.1852 20.3386 28.857L27 36.5938L33.6614 28.857C38.5472 23.1852 34.5914 14 27 14ZM27 30.253C23.0825 30.253 19.8056 26.981 19.8056 23.0586C19.8056 19.1426 23.081 15.8642 27 15.8642C30.9731 15.8642 34.1944 19.0855 34.1944 23.0586C34.1944 27.0317 30.9731 30.253 27 30.253Z" fill="#B5E480"/>
<path d="M20.2022 36.5938H33.7978V38H20.2022V36.5938Z" fill="#B5E480"/>
<path d="M27 17.4355C23.9432 17.4355 21.3769 19.9999 21.3769 23.0587C21.3769 26.1155 23.9445 28.6818 27 28.6818C30.1055 28.6818 32.6232 26.1641 32.6232 23.0587C32.6232 19.9532 30.1055 17.4355 27 17.4355ZM27 24.7626H26.011V26.6699H24.6047V19.972H27C28.321 19.972 29.3953 21.0463 29.3953 22.3673C29.3953 23.6877 28.321 24.7626 27 24.7626Z" fill="#B5E480"/>
<path d="M27.9891 22.3672C27.9891 22.9129 27.5456 23.3563 27 23.3563H26.0109V21.3782H27C27.5456 21.3782 27.9891 21.8216 27.9891 22.3672Z" fill="#B5E480"/>
</svg>
