<svg width="53" height="53" viewBox="0 0 53 53" fill="none" xmlns="http://www.w3.org/2000/svg">
<rect width="53" height="53" rx="20" fill="#F2F2F2"/>
<path d="M37.125 16.6248H37.5V26.3748H34.5V19.2498C34.5008 18.5539 34.7776 17.8866 35.2697 17.3945C35.7618 16.9024 36.429 16.6256 37.125 16.6248ZM36 33.8748C36 34.0737 36.079 34.2645 36.2196 34.4052C36.3603 34.5458 36.5511 34.6248 36.75 34.6248C36.9489 34.6248 37.1396 34.5458 37.2803 34.4052C37.421 34.2645 37.5 34.0737 37.5 33.8748V27.1248H36V33.8748ZM18 23.3748V26.3748H18.75V23.3748H18ZM27 20.7498C25.9616 20.7498 24.9466 21.0577 24.0832 21.6346C23.2199 22.2115 22.547 23.0314 22.1496 23.9907C21.7522 24.95 21.6483 26.0056 21.8508 27.024C22.0534 28.0424 22.5534 28.9779 23.2877 29.7121C24.0219 30.4464 24.9573 30.9464 25.9757 31.1489C26.9941 31.3515 28.0497 31.2476 29.0091 30.8502C29.9684 30.4528 30.7883 29.7799 31.3652 28.9166C31.9421 28.0532 32.25 27.0382 32.25 25.9998C32.2484 24.6079 31.6948 23.2735 30.7105 22.2893C29.7263 21.305 28.3919 20.7514 27 20.7498ZM17.625 33.8748C17.625 34.0737 17.704 34.2645 17.8446 34.4052C17.9853 34.5458 18.1761 34.6248 18.375 34.6248C18.5739 34.6248 18.7646 34.5458 18.9053 34.4052C19.046 34.2645 19.125 34.0737 19.125 33.8748V27.1248H17.625V33.8748ZM18.75 20.7498V17.7261C18.75 17.6266 18.7105 17.5313 18.6401 17.4609C18.5698 17.3906 18.4744 17.3511 18.375 17.3511C18.2755 17.3511 18.1801 17.3906 18.1098 17.4609C18.0395 17.5313 18 17.6266 18 17.7261V20.7498C18 20.8493 18.0395 20.9447 18.1098 21.015C18.1801 21.0853 18.2755 21.1248 18.375 21.1248C18.4744 21.1248 18.5698 21.0853 18.6401 21.015C18.7105 20.9447 18.75 20.8493 18.75 20.7498ZM35.1735 27.1248C34.9394 28.8251 34.1808 30.41 33.0035 31.6588C31.8262 32.9077 30.2887 33.7583 28.6052 34.0922C26.9217 34.4261 25.176 34.2267 23.6112 33.5217C22.0463 32.8167 20.7403 31.6413 19.875 30.1591V26.7498C19.875 26.6504 19.8355 26.555 19.7651 26.4847C19.6948 26.4143 19.5994 26.3748 19.5 26.3748V22.6074C19.4182 22.6189 19.3358 22.6247 19.2533 22.6248H17.4966C17.2586 22.6249 17.0231 22.5762 16.8045 22.4819C16.586 22.3877 16.389 22.2497 16.2257 22.0765C16.0624 21.9034 15.9362 21.6987 15.8549 21.475C15.7736 21.2513 15.7389 21.0133 15.7528 20.7757L16.0426 16.9761C16.0453 16.9267 16.0577 16.8782 16.0793 16.8336C16.1008 16.789 16.1309 16.7491 16.168 16.7162C16.205 16.6833 16.2482 16.6581 16.295 16.642C16.3418 16.6259 16.3914 16.6192 16.4408 16.6223C16.4903 16.6255 16.5386 16.6384 16.583 16.6603C16.6274 16.6822 16.667 16.7128 16.6996 16.7501C16.7322 16.7874 16.757 16.8308 16.7727 16.8778C16.7884 16.9248 16.7946 16.9744 16.791 17.0238L16.5014 20.8216C16.4937 20.957 16.5137 21.0926 16.5603 21.22C16.6068 21.3475 16.6789 21.4641 16.772 21.5627C16.8652 21.6613 16.9775 21.7398 17.1021 21.7935C17.2267 21.8472 17.3609 21.8748 17.4966 21.8748H19.2534C19.3892 21.8748 19.5235 21.8471 19.6482 21.7933C19.7729 21.7395 19.8853 21.6607 19.9784 21.5619C20.0716 21.4631 20.1436 21.3463 20.19 21.2187C20.2363 21.0911 20.2562 20.9553 20.2482 20.8198L19.9587 17.0238C19.9533 16.9251 19.9871 16.8282 20.0528 16.7543C20.1185 16.6803 20.2107 16.6353 20.3093 16.6291C20.408 16.6228 20.5052 16.6557 20.5797 16.7207C20.6542 16.7857 20.7 16.8775 20.7072 16.9761L20.971 20.3689C21.8086 19.4718 22.8358 18.773 23.9778 18.3234C25.1198 17.8737 26.3477 17.6846 27.5721 17.7697C28.7964 17.8548 29.9864 18.2121 31.0551 18.8155C32.1239 19.4188 33.0445 20.2531 33.75 21.2574V26.7498C33.75 26.8493 33.7895 26.9447 33.8598 27.015C33.9301 27.0853 34.0255 27.1248 34.125 27.1248H35.1735ZM33 25.9998C33 24.8131 32.6481 23.6531 31.9888 22.6664C31.3295 21.6797 30.3924 20.9107 29.2961 20.4565C28.1997 20.0024 26.9933 19.8836 25.8294 20.1151C24.6655 20.3466 23.5964 20.9181 22.7573 21.7572C21.9182 22.5963 21.3468 23.6654 21.1153 24.8293C20.8837 25.9932 21.0026 27.1996 21.4567 28.2959C21.9108 29.3923 22.6799 30.3294 23.6665 30.9886C24.6532 31.6479 25.8133 31.9998 27 31.9998C28.5907 31.998 30.1158 31.3653 31.2406 30.2405C32.3654 29.1156 32.9982 27.5906 33 25.9998Z" fill="#B5E480"/>
</svg>
