<svg width="53" height="53" viewBox="0 0 53 53" fill="none" xmlns="http://www.w3.org/2000/svg">
<rect width="53" height="53" rx="20" fill="#F2F2F2"/>
<path d="M36.1198 23.7539L27 17.0894L17.8802 23.7539L18.7534 24.4087L26.7794 18.5716C26.8435 18.525 26.9207 18.4999 27 18.4999C27.0793 18.4999 27.1565 18.525 27.2206 18.5716L35.2466 24.4087L36.1198 23.7539Z" fill="#F5A623"/>
<path d="M34.875 25.0659L27 19.3386L19.125 25.0659V35.7499H27.375V27.1249C27.375 27.0255 27.4145 26.9301 27.4848 26.8598C27.5552 26.7894 27.6505 26.7499 27.75 26.7499H33C33.0995 26.7499 33.1948 26.7894 33.2652 26.8598C33.3355 26.9301 33.375 27.0255 33.375 27.1249V35.7499H34.875V25.0659ZM25.875 32.3749C25.875 32.4744 25.8355 32.5698 25.7652 32.6401C25.6948 32.7104 25.5995 32.7499 25.5 32.7499H21C20.9005 32.7499 20.8052 32.7104 20.7348 32.6401C20.6645 32.5698 20.625 32.4744 20.625 32.3749V27.1249C20.625 27.0255 20.6645 26.9301 20.7348 26.8598C20.8052 26.7894 20.9005 26.7499 21 26.7499H25.5C25.5995 26.7499 25.6948 26.7894 25.7652 26.8598C25.8355 26.9301 25.875 27.0255 25.875 27.1249V32.3749Z" fill="#F5A623"/>
<path d="M23.625 27.5H25.125V29.375H23.625V27.5Z" fill="#F5A623"/>
<path d="M36.7612 34.25H36.7604C36.7412 34.2527 36.722 34.255 36.7025 34.2562C36.6403 34.2602 36.5782 34.2485 36.5216 34.2224C36.4651 34.1963 36.416 34.1566 36.3787 34.1067C36.3413 34.0569 36.317 33.9985 36.3079 33.9369C36.2988 33.8753 36.3051 33.8124 36.3264 33.7539C36.3574 33.6728 36.3739 33.5868 36.375 33.5C36.3748 33.3012 36.2957 33.1105 36.1551 32.9699C36.0145 32.8293 35.8238 32.7502 35.625 32.75V35.75H36.75C36.9489 35.7515 37.1403 35.6739 37.282 35.5343C37.4237 35.3947 37.5041 35.2045 37.5056 35.0056C37.5071 34.8067 37.4295 34.6154 37.2899 34.4736C37.1503 34.3319 36.9602 34.2515 36.7612 34.25Z" fill="#F5A623"/>
<path d="M30.7145 18.875L33 20.5452V17H30.75V18.875H30.7145Z" fill="#F5A623"/>
<path d="M32.625 27.5H28.125V35.75H32.625V27.5ZM29.25 31.625C29.1758 31.625 29.1033 31.603 29.0417 31.5618C28.98 31.5206 28.9319 31.462 28.9035 31.3935C28.8752 31.325 28.8677 31.2496 28.8822 31.1768C28.8967 31.1041 28.9324 31.0373 28.9848 30.9848C29.0373 30.9324 29.1041 30.8967 29.1768 30.8822C29.2496 30.8677 29.325 30.8752 29.3935 30.9035C29.462 30.9319 29.5206 30.98 29.5618 31.0417C29.603 31.1033 29.625 31.1758 29.625 31.25C29.625 31.3495 29.5855 31.4448 29.5152 31.5152C29.4448 31.5855 29.3495 31.625 29.25 31.625Z" fill="#F5A623"/>
<path d="M30.375 15.5H33.375V16.25H30.375V15.5Z" fill="#F5A623"/>
<path d="M21.375 30.125H22.875V32H21.375V30.125Z" fill="#F5A623"/>
<path d="M23.625 30.125H25.125V32H23.625V30.125Z" fill="#F5A623"/>
<path d="M21.375 27.5H22.875V29.375H21.375V27.5Z" fill="#F5A623"/>
<path d="M17.2975 34.2564C17.278 34.2552 17.2588 34.2529 17.2396 34.2502H17.2388C17.0417 34.2544 16.8542 34.336 16.7169 34.4774C16.5795 34.6188 16.5034 34.8085 16.5048 35.0056C16.5063 35.2027 16.5853 35.3913 16.7248 35.5306C16.8642 35.6699 17.0529 35.7487 17.25 35.75H18.375V32.75C18.1762 32.7502 17.9855 32.8293 17.8449 32.9699C17.7043 33.1105 17.6252 33.3012 17.625 33.5C17.6261 33.5869 17.6426 33.6729 17.6736 33.7541C17.6949 33.8126 17.7012 33.8755 17.6921 33.9371C17.683 33.9987 17.6587 34.0571 17.6213 34.1069C17.584 34.1568 17.5349 34.1965 17.4784 34.2226C17.4218 34.2487 17.3597 34.2603 17.2975 34.2564Z" fill="#F5A623"/>
</svg>
