<svg width="53" height="53" viewBox="0 0 53 53" fill="none" xmlns="http://www.w3.org/2000/svg">
<rect width="53" height="53" rx="20" fill="#F2F2F2"/>
<path d="M34.5 21.5H25.5V32H22.5V21.5H19.5V33.5C19.5 34.3284 20.1717 35 21 35H33C33.8284 35 34.5001 34.3284 34.5001 33.5V21.5H34.5ZM30.75 32C29.5074 32 28.5 30.9926 28.5 29.75C28.5 28.5073 29.5074 27.5 30.75 27.5C31.9926 27.5 33 28.5073 33 29.75C33 30.9926 31.9927 32 30.75 32Z" fill="#C698ED"/>
<path d="M38.25 16.9998H15.75C15.3354 16.9998 15 17.3352 15 17.7498V26.7498C15 27.1643 15.3354 27.4998 15.75 27.4998H18V19.9998H36V27.4998H38.25C38.6645 27.4998 39 27.1644 39 26.7498V17.7498C39 17.3352 38.6646 16.9998 38.25 16.9998Z" fill="#C698ED"/>
</svg>
