<svg width="53" height="53" viewBox="0 0 53 53" fill="none" xmlns="http://www.w3.org/2000/svg">
<rect width="53" height="53" rx="20" fill="#F2F2F2"/>
<g clip-path="url(#clip0_383_6735)">
<path d="M36.7931 19.8344H28.3517L32.6276 15.6137L31.8552 14.8413L27.4138 19.1999L22.9724 14.8137L22.2 15.5861L26.4759 19.8068H17.2069C15.9931 19.8068 15 20.7999 15 22.0137V34.9792C15 36.193 15.9931 37.1861 17.2069 37.1861H36.7931C38.0069 37.1861 39 36.193 39 34.9792V22.0137C39 20.8275 38.0069 19.8344 36.7931 19.8344ZM29.8966 32.1379C29.8966 33.0482 29.1517 33.793 28.2414 33.793H19.6897C18.7793 33.793 18.0345 33.0482 18.0345 32.1379V24.9654C18.0345 24.0551 18.7793 23.3103 19.6897 23.3103H28.2414C29.1517 23.3103 29.8966 24.0551 29.8966 24.9654V32.1379ZM34.0345 33.131C32.9586 33.131 32.1034 32.2758 32.1034 31.1999C32.1034 30.1241 32.9586 29.2689 34.0345 29.2689C35.1103 29.2689 35.9655 30.1241 35.9655 31.1999C35.9655 32.2758 35.1103 33.131 34.0345 33.131ZM36.2414 27.531H31.8276V26.4275H36.2414V27.531ZM36.2414 24.7723H31.8276V23.6689H36.2414V24.7723Z" fill="#B5E480"/>
</g>
<defs>
<clipPath id="clip0_383_6735">
<rect width="24" height="24" fill="white" transform="translate(15 14)"/>
</clipPath>
</defs>
</svg>
