<svg width="53" height="53" viewBox="0 0 53 53" fill="none" xmlns="http://www.w3.org/2000/svg">
<rect width="53" height="53" rx="20" fill="#F2F2F2"/>
<g clip-path="url(#clip0_383_6682)">
<path d="M22.9214 29.32C22.4451 29.7963 22.4451 30.5686 22.9214 31.0448C23.3979 31.5211 24.17 31.5211 24.6463 31.0448C25.944 29.7471 28.0559 29.7471 29.3536 31.0448C29.5918 31.2828 29.9041 31.402 30.2161 31.402C30.5282 31.402 30.8404 31.283 31.0786 31.0448C31.5549 30.5685 31.5549 29.7962 31.0786 29.32C28.8296 27.0711 25.1704 27.0711 22.9214 29.32Z" fill="#78D5E6"/>
<path d="M19.3467 25.7453C18.8704 26.2216 18.8704 26.9938 19.3467 27.47C19.823 27.9461 20.5951 27.9464 21.0716 27.47C24.3405 24.201 29.6596 24.201 32.9283 27.47C33.1666 27.708 33.4788 27.8272 33.7909 27.8272C34.1029 27.8272 34.4151 27.7082 34.6534 27.47C35.1297 26.9937 35.1297 26.2214 34.6534 25.7453C30.4333 21.5253 23.5668 21.5253 19.3467 25.7453Z" fill="#78D5E6"/>
<path d="M38.6429 21.7556C32.223 15.3357 21.7771 15.3357 15.3573 21.7556C14.881 22.2319 14.881 23.0042 15.3573 23.4804C15.8338 23.9567 16.6059 23.9567 17.0822 23.4804C19.7312 20.8312 23.2535 19.3723 27 19.3723C30.7466 19.3723 34.2689 20.8313 36.9179 23.4804C37.1561 23.7184 37.4683 23.8376 37.7804 23.8376C38.0925 23.8376 38.4047 23.7186 38.6429 23.4804C39.1192 23.0042 39.1192 22.2319 38.6429 21.7556Z" fill="#78D5E6"/>
<path d="M27 35.0596C27.7392 35.0596 28.3385 34.4603 28.3385 33.7211C28.3385 32.9818 27.7392 32.3826 27 32.3826C26.2608 32.3826 25.6615 32.9818 25.6615 33.7211C25.6615 34.4603 26.2608 35.0596 27 35.0596Z" fill="#78D5E6"/>
</g>
<defs>
<clipPath id="clip0_383_6682">
<rect width="24" height="24" fill="white" transform="translate(15 14)"/>
</clipPath>
</defs>
</svg>
