<svg width="53" height="53" viewBox="0 0 53 53" fill="none" xmlns="http://www.w3.org/2000/svg">
<rect width="53" height="53" rx="20" fill="#F2F2F2"/>
<path d="M24 32C23.9508 32 23.902 31.9903 23.8565 31.9715C23.811 31.9526 23.7696 31.925 23.7348 31.8902C23.7 31.8554 23.6724 31.814 23.6535 31.7685C23.6347 31.723 23.625 31.6742 23.625 31.625V29.375C23.625 29.2755 23.6645 29.1802 23.7348 29.1098C23.8052 29.0395 23.9005 29 24 29C24.0995 29 24.1948 29.0395 24.2652 29.1098C24.3355 29.1802 24.375 29.2755 24.375 29.375V31.625C24.375 31.6742 24.3653 31.723 24.3465 31.7685C24.3276 31.814 24.3 31.8554 24.2652 31.8902C24.2304 31.925 24.189 31.9526 24.1435 31.9715C24.098 31.9903 24.0492 32 24 32ZM27.375 33.125V29.375C27.375 29.2755 27.3355 29.1802 27.2652 29.1098C27.1948 29.0395 27.0995 29 27 29C26.9005 29 26.8052 29.0395 26.7348 29.1098C26.6645 29.1802 26.625 29.2755 26.625 29.375V33.125C26.625 33.2245 26.6645 33.3198 26.7348 33.3902C26.8052 33.4605 26.9005 33.5 27 33.5C27.0995 33.5 27.1948 33.4605 27.2652 33.3902C27.3355 33.3198 27.375 33.2245 27.375 33.125ZM21.375 30.875V29.375C21.375 29.2755 21.3355 29.1802 21.2652 29.1098C21.1948 29.0395 21.0995 29 21 29C20.9005 29 20.8052 29.0395 20.7348 29.1098C20.6645 29.1802 20.625 29.2755 20.625 29.375V30.875C20.6244 31.3721 20.4267 31.8487 20.0752 32.2002C19.7237 32.5517 19.2471 32.7494 18.75 32.75C18.6505 32.75 18.5552 32.7895 18.4848 32.8598C18.4145 32.9302 18.375 33.0255 18.375 33.125C18.375 33.2245 18.4145 33.3198 18.4848 33.3902C18.5552 33.4605 18.6505 33.5 18.75 33.5C19.4459 33.4992 20.1132 33.2224 20.6053 32.7303C21.0974 32.2382 21.3742 31.5709 21.375 30.875ZM30.375 31.625V29.375C30.375 29.2755 30.3355 29.1802 30.2652 29.1098C30.1948 29.0395 30.0995 29 30 29C29.9005 29 29.8052 29.0395 29.7348 29.1098C29.6645 29.1802 29.625 29.2755 29.625 29.375V31.625C29.625 31.7245 29.6645 31.8198 29.7348 31.8902C29.8052 31.9605 29.9005 32 30 32C30.0995 32 30.1948 31.9605 30.2652 31.8902C30.3355 31.8198 30.375 31.7245 30.375 31.625ZM35.625 33.125C35.625 33.0758 35.6153 33.027 35.5965 32.9815C35.5776 32.936 35.55 32.8946 35.5152 32.8598C35.4804 32.825 35.439 32.7974 35.3935 32.7785C35.348 32.7597 35.2992 32.75 35.25 32.75C34.7529 32.7494 34.2763 32.5517 33.9248 32.2002C33.5733 31.8487 33.3756 31.3721 33.375 30.875V29.375C33.375 29.2755 33.3355 29.1802 33.2652 29.1098C33.1948 29.0395 33.0995 29 33 29C32.9005 29 32.8052 29.0395 32.7348 29.1098C32.6645 29.1802 32.625 29.2755 32.625 29.375V30.875C32.6258 31.5709 32.9026 32.2382 33.3947 32.7303C33.8868 33.2224 34.5541 33.4992 35.25 33.5C35.2992 33.5 35.348 33.4903 35.3935 33.4715C35.439 33.4526 35.4804 33.425 35.5152 33.3902C35.55 33.3554 35.5776 33.314 35.5965 33.2685C35.6153 33.223 35.625 33.1742 35.625 33.125ZM25.5 28.25H28.5V26.75H25.5V28.25ZM21.75 28.25H24.75V26.75H21.75V28.25ZM15.75 23V20.375C15.7506 19.8779 15.9483 19.4013 16.2998 19.0498C16.6513 18.6983 17.1279 18.5006 17.625 18.5H36.375C36.8721 18.5006 37.3487 18.6983 37.7002 19.0498C38.0517 19.4013 38.2494 19.8779 38.25 20.375V23H15.75ZM24 21.125C24 21.1742 24.0097 21.223 24.0285 21.2685C24.0474 21.314 24.075 21.3554 24.1098 21.3902C24.1446 21.425 24.186 21.4526 24.2315 21.4715C24.277 21.4903 24.3258 21.5 24.375 21.5H29.625C29.7245 21.5 29.8198 21.4605 29.8902 21.3902C29.9605 21.3198 30 21.2245 30 21.125C30 21.0255 29.9605 20.9302 29.8902 20.8598C29.8198 20.7895 29.7245 20.75 29.625 20.75H24.375C24.3258 20.75 24.277 20.7597 24.2315 20.7785C24.186 20.7974 24.1446 20.825 24.1098 20.8598C24.075 20.8946 24.0474 20.936 24.0285 20.9815C24.0097 21.027 24 21.0758 24 21.125ZM29.25 28.25H32.25V26.75H29.25V28.25ZM15.75 23.75V26C15.7509 26.5312 15.9396 27.045 16.2827 27.4505C16.6258 27.8561 17.1013 28.1273 17.625 28.2161V25.625C17.6253 25.3267 17.744 25.0408 17.9549 24.8299C18.1658 24.619 18.4517 24.5003 18.75 24.5H35.25C35.5483 24.5003 35.8342 24.619 36.0451 24.8299C36.256 25.0408 36.3747 25.3267 36.375 25.625V28.2161C36.8987 28.1273 37.3742 27.8561 37.7173 27.4505C38.0604 27.045 38.2491 26.5312 38.25 26V23.75H15.75ZM33 26.75V28.25H35.625V26.75H33ZM18.375 28.25H21V26.75H18.375V28.25ZM35.25 25.25H18.75C18.6506 25.2501 18.5552 25.2896 18.4849 25.3599C18.4146 25.4302 18.3751 25.5256 18.375 25.625V26H35.625V25.625C35.6249 25.5256 35.5854 25.4302 35.5151 25.3599C35.4447 25.2896 35.3494 25.2501 35.25 25.25Z" fill="#78D5E6"/>
</svg>
