<svg width="21" height="22" viewBox="0 0 21 22" fill="none" xmlns="http://www.w3.org/2000/svg">
<path fill-rule="evenodd" clip-rule="evenodd" d="M11.7168 14.2913C12.9208 14.2913 13.9008 15.2643 13.9008 16.4603V19.5363C13.9008 19.7933 14.1068 19.9993 14.3708 20.0053H16.2768C17.7788 20.0053 18.9998 18.7993 18.9998 17.3173V8.59325C18.9928 8.08325 18.7498 7.60325 18.3328 7.28425L11.7398 2.02625C10.8548 1.32525 9.61679 1.32525 8.72879 2.02825L2.18079 7.28225C1.74779 7.61125 1.50479 8.09125 1.49979 8.61025V17.3173C1.49979 18.7993 2.72079 20.0053 4.22279 20.0053H6.14679C6.41779 20.0053 6.63779 19.7903 6.63779 19.5263C6.63779 19.4683 6.64479 19.4103 6.65679 19.3553V16.4603C6.65679 15.2713 7.63079 14.2993 8.82579 14.2913H11.7168ZM16.2768 21.5053H14.3528C13.2508 21.4793 12.4008 20.6143 12.4008 19.5363V16.4603C12.4008 16.0913 12.0938 15.7913 11.7168 15.7913H8.83079C8.46179 15.7933 8.15679 16.0943 8.15679 16.4603V19.5263C8.15679 19.6013 8.14679 19.6733 8.12579 19.7413C8.01779 20.7313 7.17179 21.5053 6.14679 21.5053H4.22279C1.89379 21.5053 -0.000213623 19.6263 -0.000213623 17.3173V8.60325C0.00978638 7.60925 0.467786 6.69925 1.25879 6.10025L7.79379 0.85525C9.23279 -0.28475 11.2378 -0.28475 12.6738 0.85325L19.2558 6.10325C20.0288 6.69225 20.4868 7.60025 20.4998 8.58225V17.3173C20.4998 19.6263 18.6058 21.5053 16.2768 21.5053Z" fill="#9295A3"/>
</svg>
